<svg id="Layer_1" data-name="Layer 1" xmlns="http://www.w3.org/2000/svg" viewBox="0 0 130 44"><defs><style>.cls-1{fill:#070808;}.cls-2{fill:#5ab6e5;}</style></defs><title>datatonic-logo</title><path class="cls-1" d="M26,6.19c3.82,2.14,9.86,3.49,14.34,3.92-.5,4.05-1.62,10.74-4.33,15.74-3.16,5.82-7.51,10-10,11.4-2.5-1.36-6.85-5.58-10-11.4-2.71-5-3.83-11.69-4.33-15.74C16.18,9.68,22.22,8.33,26,6.19m0-3C22.4,6,13.45,7.75,8.93,7.75c.46,4.72,1.53,13.06,4.9,19.29C17.39,33.59,22.83,38.91,26,40c3.21-1.07,8.65-6.39,12.21-12.94,3.37-6.23,4.44-14.57,4.9-19.29C38.63,7.75,29.69,6,26,3.21Z"/><path class="cls-2" d="M25.81,12.65a4.84,4.84,0,0,1,5.09,5.07v1.61a4.82,4.82,0,0,1-5.09,5.06H20.9v-1l1.31-.23V13.9l-1.31-.22v-1h4.91Zm-2,1.25v9.24h2a3.22,3.22,0,0,0,2.57-1.07,4,4,0,0,0,.93-2.74V17.71A4,4,0,0,0,28.38,15a3.23,3.23,0,0,0-2.57-1.08Z"/><path class="cls-2" d="M52.71,15.7A5,5,0,0,1,58,20.92v1.65a4.95,4.95,0,0,1-5.25,5.21H47.65v-1L49,26.51V17l-1.35-.24V15.7h5.06ZM50.64,17v9.52h2.07a3.34,3.34,0,0,0,2.65-1.11,4.15,4.15,0,0,0,1-2.83V20.9a4.13,4.13,0,0,0-1-2.81A3.33,3.33,0,0,0,52.71,17Z"/><path class="cls-2" d="M64.59,27.78c0-.24-.09-.46-.12-.65a5.7,5.7,0,0,1-.06-.58,4,4,0,0,1-1.18,1,3.1,3.1,0,0,1-1.51.4,3,3,0,0,1-2.14-.69,2.53,2.53,0,0,1-.73-1.93,2.24,2.24,0,0,1,1-2,5,5,0,0,1,2.83-.69H64.4V21.63a1.63,1.63,0,0,0-.49-1.25,2,2,0,0,0-1.39-.46,3.51,3.51,0,0,0-1.08.16,2.13,2.13,0,0,0-.76.43l-.18.95H59.24V19.72a4.9,4.9,0,0,1,1.49-.79,6,6,0,0,1,1.89-.29,3.75,3.75,0,0,1,2.47.78,2.7,2.7,0,0,1,1,2.23v4.67c0,.11,0,.22,0,.33l.67.09v1ZM62,26.59a2.9,2.9,0,0,0,1.48-.39,2.35,2.35,0,0,0,1-.94V23.78H62.66a2.49,2.49,0,0,0-1.59.47,1.38,1.38,0,0,0-.58,1.13,1.13,1.13,0,0,0,.36.9A1.67,1.67,0,0,0,62,26.59Z"/><path class="cls-2" d="M70.1,16.64V18.8h1.7V20H70.1v5.45a1.2,1.2,0,0,0,.26.89.93.93,0,0,0,.69.25l.49,0L72,26.5l.22,1.12a2,2,0,0,1-.68.24,3.86,3.86,0,0,1-.89.1,2.12,2.12,0,0,1-1.59-.6,2.63,2.63,0,0,1-.59-1.89V20H67V18.8h1.42V16.64Z"/><path class="cls-2" d="M78.48,27.78c0-.24-.09-.46-.12-.65a5.7,5.7,0,0,1-.06-.58,4,4,0,0,1-1.18,1,3.11,3.11,0,0,1-1.52.4,3,3,0,0,1-2.13-.69,2.5,2.5,0,0,1-.73-1.93,2.25,2.25,0,0,1,1-2,5.08,5.08,0,0,1,2.84-.69h1.68V21.63a1.63,1.63,0,0,0-.49-1.25,2,2,0,0,0-1.39-.46,3.51,3.51,0,0,0-1.08.16,2,2,0,0,0-.76.43l-.18.95H73.13V19.72a4.9,4.9,0,0,1,1.49-.79,6,6,0,0,1,1.89-.29,3.75,3.75,0,0,1,2.47.78,2.73,2.73,0,0,1,1,2.23v4.67c0,.11,0,.22,0,.33l.67.09v1Zm-2.63-1.19a2.9,2.9,0,0,0,1.48-.39,2.35,2.35,0,0,0,1-.94V23.78H76.55a2.49,2.49,0,0,0-1.59.47,1.38,1.38,0,0,0-.58,1.13,1.13,1.13,0,0,0,.36.9A1.65,1.65,0,0,0,75.85,26.59Z"/><path class="cls-2" d="M94.12,15.7v2.67h-1.4L92.6,17H89.92v9.52l1.35.23v1H86.93v-1l1.35-.23V17H85.59l-.11,1.38H84.07V15.7Z"/><path class="cls-2" d="M93.5,23.21a4.93,4.93,0,0,1,1.08-3.28,3.61,3.61,0,0,1,2.93-1.29,3.65,3.65,0,0,1,2.94,1.28,5,5,0,0,1,1.08,3.29v.18a4.92,4.92,0,0,1-1.07,3.29,4,4,0,0,1-5.88,0,4.94,4.94,0,0,1-1.08-3.29Zm1.64.18a4.26,4.26,0,0,0,.6,2.36,2.16,2.16,0,0,0,3.55,0,4.18,4.18,0,0,0,.61-2.36v-.18a4.21,4.21,0,0,0-.61-2.35,2.16,2.16,0,0,0-3.56,0,4.29,4.29,0,0,0-.59,2.35Z"/><path class="cls-2" d="M101.94,26.74l1.35-.23V20.09l-1.35-.23V18.8h2.81l.12,1.34A3.21,3.21,0,0,1,106,19a3,3,0,0,1,1.54-.39,2.92,2.92,0,0,1,2.25.85,3.74,3.74,0,0,1,.8,2.63v4.39l1.35.23v1h-4.34v-1l1.35-.23V22.15a2.48,2.48,0,0,0-.46-1.69A1.9,1.9,0,0,0,107,20a2.3,2.3,0,0,0-1.25.34,2.34,2.34,0,0,0-.86.93v5.27l1.35.23v1h-4.34Z"/><path class="cls-2" d="M112.27,26.74l1.35-.23V20.09l-1.35-.23V18.8h3v7.71l1.35.23v1h-4.34Zm3-10.24h-1.64V14.84h1.64Z"/><path class="cls-2" d="M121,26.68a2.22,2.22,0,0,0,1.43-.5,1.55,1.55,0,0,0,.62-1.23h1.47l0,.05a2.54,2.54,0,0,1-1,2.06,3.76,3.76,0,0,1-2.5.9,3.62,3.62,0,0,1-3-1.28,4.93,4.93,0,0,1-1-3.21v-.35a4.92,4.92,0,0,1,1-3.2,3.61,3.61,0,0,1,3-1.28A5.16,5.16,0,0,1,123,19a4,4,0,0,1,1.42,1l.08,2h-1.31l-.35-1.42a2.3,2.3,0,0,0-.75-.45,2.78,2.78,0,0,0-1-.18,2,2,0,0,0-1.84.93,4.34,4.34,0,0,0-.55,2.27v.35a4.34,4.34,0,0,0,.55,2.29A2,2,0,0,0,121,26.68Z"/><path class="cls-2" d="M34.33,32.58h-1c-6.6-.13-18.2-2.77-24.3-6.37-3.35-2-5-4.12-4.87-6a2.79,2.79,0,0,1,2.6-2.69,2.75,2.75,0,0,0-.9,3.17c.48,1.35,1.37,2.16,4.19,3.83,5.66,3.34,17,6,23.31,6.09,5.89.1,6.61-.13,7.75-1a2.32,2.32,0,0,0,.77-1.8,2.94,2.94,0,0,1,0,2.78C41.09,32,38.82,32.58,34.33,32.58Z"/></svg>